<?xml version="1.0" encoding="utf-8"?>
<!-- Generator: Adobe Illustrator 24.0.2, SVG Export Plug-In . SVG Version: 6.00 Build 0)  -->
<svg version="1.1" id="Layer_1" xmlns="http://www.w3.org/2000/svg" xmlns:xlink="http://www.w3.org/1999/xlink" x="0px" y="0px"
	 viewBox="0 0 650.4 367" style="enable-background:new 0 0 650.4 367;" xml:space="preserve">
<style type="text/css">
	.st0{fill:#FFFFFF;}
	.st1{fill:#EB4227;}
</style>
<g>
	<path class="st0" d="M483.3,210.7h-2.6v-22.5c0-5.5-0.8-9.5-2.5-12.1c-1.7-2.6-4.3-3.9-7.7-3.9c-1.8,0-3.5,0.3-5.1,1
		c-1.6,0.7-3.1,1.6-4.3,2.8c-1.3,1.2-2.4,2.6-3.4,4.2c-1,1.7-1.7,3.4-2.3,5.4v25.1h-2.6v-22.5c0-5.5-0.8-9.6-2.4-12.1
		s-4.2-3.8-7.7-3.8c-3.6,0-6.7,1.2-9.4,3.6c-2.7,2.4-4.6,5.6-5.7,9.6v25.2h-2.6v-40.3h2.6v10.1c1.7-3.4,3.9-6,6.6-7.9
		c2.7-1.9,5.7-2.8,8.9-2.8c3.4,0,6.2,1,8.3,3.1c2.1,2.1,3.4,4.8,3.8,8.2c4-7.5,9.3-11.3,16-11.3c4.3,0,7.4,1.5,9.4,4.6
		c2,3.1,2.9,7.6,2.9,13.5V210.7z"/>
	<path class="st0" d="M510.2,211.5c-2.7,0-5.3-0.6-7.7-1.7c-2.4-1.1-4.5-2.6-6.2-4.6c-1.8-1.9-3.2-4.2-4.2-6.7
		c-1-2.6-1.5-5.3-1.5-8.2c0-2.8,0.5-5.5,1.5-8c1-2.5,2.4-4.7,4.1-6.5c1.8-1.9,3.8-3.3,6.1-4.4c2.3-1.1,4.9-1.6,7.6-1.6
		c2.8,0,5.4,0.5,7.8,1.6c2.4,1.1,4.4,2.6,6.2,4.5s3.1,4.1,4.1,6.6c1,2.5,1.5,5.2,1.5,8.1c0,0.1,0,0.3,0,0.6c0,0.3,0,0.5-0.1,0.5
		h-36.1c0.2,2.5,0.8,4.8,1.7,6.9c1,2.1,2.2,4,3.7,5.5c1.5,1.6,3.3,2.8,5.3,3.7c2,0.9,4.1,1.4,6.3,1.4c1.4,0,2.9-0.2,4.3-0.6
		s2.8-0.9,4-1.7c1.2-0.7,2.3-1.6,3.3-2.6s1.7-2.1,2.3-3.3l2.4,0.6c-0.6,1.4-1.4,2.7-2.5,3.9c-1.1,1.2-2.4,2.3-3.8,3.1
		c-1.5,0.9-3.1,1.5-4.8,2C513.8,211.3,512,211.5,510.2,211.5z M526.9,189.5c-0.2-2.5-0.7-4.9-1.6-7c-0.9-2.1-2.2-4-3.7-5.5
		c-1.5-1.6-3.3-2.8-5.2-3.6c-2-0.9-4.1-1.3-6.4-1.3c-2.3,0-4.4,0.4-6.4,1.3c-2,0.9-3.7,2.1-5.2,3.6c-1.5,1.6-2.7,3.4-3.6,5.5
		c-0.9,2.1-1.4,4.4-1.6,6.9H526.9z"/>
	<path class="st0" d="M552.9,211.5c-2.8,0-5.4-0.6-7.8-1.8c-2.4-1.2-4.4-2.8-6.2-4.7c-1.7-1.9-3.1-4.1-4-6.6c-1-2.5-1.4-5-1.4-7.7
		c0-2.8,0.5-5.5,1.4-8c0.9-2.5,2.2-4.8,3.9-6.7c1.7-1.9,3.6-3.4,5.9-4.6c2.3-1.1,4.8-1.7,7.4-1.7c1.8,0,3.5,0.3,5.1,0.8
		c1.6,0.5,3.1,1.2,4.5,2.1c1.4,0.9,2.6,2,3.7,3.1c1.1,1.2,2.1,2.4,2.8,3.7v-25.4h2.6v52.4c0,1.1,0.5,1.7,1.4,1.7v2.5
		c-0.2,0.1-0.4,0.1-0.6,0.1c-0.9,0-1.7-0.3-2.3-1c-0.6-0.7-0.9-1.5-0.9-2.4v-4.9c-0.8,1.3-1.8,2.6-3,3.7c-1.2,1.1-2.4,2.1-3.8,2.8
		c-1.3,0.8-2.8,1.4-4.3,1.8C555.9,211.3,554.4,211.5,552.9,211.5z M553.3,209c1.5,0,3.1-0.3,4.8-0.9c1.7-0.6,3.3-1.5,4.8-2.5
		s2.7-2.3,3.7-3.7c1-1.4,1.6-2.9,1.7-4.5v-13.9c-0.6-1.6-1.4-3-2.5-4.4c-1.1-1.4-2.4-2.6-3.8-3.6c-1.4-1-3-1.8-4.6-2.4
		c-1.6-0.6-3.2-0.9-4.8-0.9c-2.5,0-4.7,0.5-6.7,1.6c-2,1.1-3.7,2.5-5.1,4.2c-1.4,1.7-2.5,3.7-3.3,5.9c-0.8,2.2-1.2,4.5-1.2,6.8
		c0,2.4,0.4,4.7,1.3,6.9c0.9,2.2,2.1,4.1,3.6,5.8c1.5,1.7,3.3,3,5.4,4S550.9,209,553.3,209z"/>
	<path class="st0" d="M581.7,160.6v-6.5h2.6v6.5H581.7z M581.7,210.7v-40.3h2.6v40.3H581.7z"/>
	<path class="st0" d="M604.8,211.5c-1.9,0-3.6-0.3-5.2-1c-1.6-0.6-3-1.5-4.2-2.6c-1.2-1.1-2.1-2.4-2.8-3.9c-0.7-1.5-1-3.1-1-4.9
		c0-1.7,0.4-3.3,1.2-4.7c0.8-1.4,2-2.6,3.4-3.7c1.5-1,3.2-1.8,5.3-2.4c2-0.6,4.3-0.9,6.7-0.9c2.3,0,4.6,0.2,6.9,0.5
		c2.3,0.4,4.4,0.9,6.2,1.6v-4.3c0-4-1.1-7.3-3.4-9.7c-2.3-2.4-5.4-3.6-9.3-3.6c-2,0-4.1,0.4-6.3,1.3c-2.2,0.9-4.4,2.1-6.7,3.7
		l-1.2-1.9c5.2-3.5,10-5.3,14.3-5.3c4.7,0,8.4,1.4,11.1,4.2c2.7,2.8,4.1,6.6,4.1,11.5v21.1c0,1.1,0.5,1.7,1.4,1.7v2.5
		c-0.2,0.1-0.3,0.1-0.4,0.1c-0.1,0-0.2,0-0.3,0c-0.9,0-1.6-0.3-2.2-1c-0.6-0.6-0.9-1.4-0.9-2.4v-3.6c-1.9,2.4-4.3,4.3-7.2,5.6
		C611.4,210.8,608.2,211.5,604.8,211.5z M605.1,209.3c1.9,0,3.8-0.3,5.8-0.8c1.9-0.5,3.7-1.2,5.2-2.1c1.6-0.9,2.8-2,3.8-3.1
		c1-1.2,1.5-2.5,1.5-3.8v-7.6c-4-1.6-8.3-2.3-12.9-2.3c-2.1,0-4.1,0.2-5.8,0.7c-1.8,0.5-3.3,1.1-4.5,1.9c-1.3,0.8-2.3,1.8-2.9,3
		c-0.7,1.2-1,2.5-1,3.9s0.3,2.8,0.9,4c0.6,1.2,1.3,2.3,2.3,3.3c1,0.9,2.1,1.7,3.4,2.2C602.1,209,603.6,209.3,605.1,209.3z"/>
	<circle class="st0" cx="196" cy="183.5" r="171"/>
	<path class="st1" d="M121.7,126l-18.2,114h16.4l3.1-20.7h22L148,240h18.1l-18.2-114H121.7z M125.2,203.9l8.6-57.7l8.6,57.7H125.2z"
		/>
	<path class="st1" d="M200.8,126h-26.4v114h17.9v-42.8h8.5c17.9,0,26.7-9.9,26.7-28.2v-14.8C227.5,135.9,218.7,126,200.8,126z
		 M209.6,170.1c0,8.1-3.1,10.7-8.8,10.7h-8.5v-38.6h8.5c5.7,0,8.8,2.6,8.8,10.7V170.1z"/>
	<path class="st1" d="M288.6,164.4v-11.1c0-18.2-9.1-28.7-26.7-28.7c-17.6,0-26.7,10.4-26.7,28.7v59.3c0,18.2,9.1,28.7,26.7,28.7
		c17.6,0,26.7-10.4,26.7-28.7v-36.2h-25.1v16.3h8.1v21c0,8.1-3.6,11.1-9.3,11.1c-5.7,0-9.3-2.9-9.3-11.1v-61.6
		c0-8.1,3.6-11.2,9.3-11.2c5.7,0,9.3,3.1,9.3,11.2v12.2H288.6z"/>
</g>
</svg>
