<?xml version="1.0" encoding="utf-8"?>
<!-- Generator: Adobe Illustrator 24.0.2, SVG Export Plug-In . SVG Version: 6.00 Build 0)  -->
<svg version="1.1" id="Layer_1" xmlns="http://www.w3.org/2000/svg" xmlns:xlink="http://www.w3.org/1999/xlink" x="0px" y="0px"
	 viewBox="0 0 493.3 290.7" style="enable-background:new 0 0 493.3 290.7;" xml:space="preserve">
<style type="text/css">
	.st0{fill:#E7432B;}
	.st1{fill:#FFFFFF;}
</style>
<g>
	<path class="st0" d="M368.1,166.3h-2V149c0-4.2-0.6-7.3-1.9-9.3c-1.3-2-3.3-3-5.9-3c-1.4,0-2.7,0.3-3.9,0.8
		c-1.2,0.5-2.3,1.2-3.3,2.1c-1,0.9-1.9,2-2.6,3.2c-0.8,1.3-1.3,2.6-1.7,4.1v19.3h-2V149c0-4.3-0.6-7.4-1.9-9.3c-1.3-2-3.2-3-5.9-3
		c-2.7,0-5.1,0.9-7.2,2.8c-2.1,1.9-3.5,4.3-4.4,7.4v19.4h-2v-31h2v7.7c1.3-2.6,3-4.6,5.1-6.1c2.1-1.4,4.3-2.1,6.8-2.1
		c2.6,0,4.8,0.8,6.4,2.4c1.6,1.6,2.6,3.7,3,6.3c3.1-5.8,7.1-8.7,12.3-8.7c3.3,0,5.7,1.2,7.2,3.5c1.5,2.4,2.3,5.8,2.3,10.4V166.3z"/>
	<path class="st0" d="M388.8,166.9c-2.1,0-4.1-0.4-5.9-1.3c-1.8-0.9-3.4-2-4.8-3.5c-1.4-1.5-2.4-3.2-3.2-5.2c-0.8-2-1.2-4.1-1.2-6.3
		c0-2.2,0.4-4.2,1.1-6.1c0.8-1.9,1.8-3.6,3.2-5c1.4-1.4,2.9-2.6,4.7-3.4c1.8-0.8,3.7-1.3,5.8-1.3c2.1,0,4.1,0.4,6,1.3
		c1.8,0.8,3.4,2,4.8,3.4c1.4,1.4,2.4,3.1,3.2,5.1c0.8,1.9,1.2,4,1.2,6.2c0,0.1,0,0.2,0,0.5c0,0.2,0,0.4-0.1,0.4h-27.8
		c0.2,1.9,0.6,3.7,1.3,5.3c0.7,1.6,1.7,3.1,2.9,4.3c1.2,1.2,2.5,2.1,4.1,2.8c1.5,0.7,3.1,1,4.9,1c1.1,0,2.2-0.2,3.3-0.4
		c1.1-0.3,2.1-0.7,3.1-1.3c1-0.6,1.8-1.2,2.5-2c0.7-0.8,1.3-1.6,1.7-2.5l1.8,0.5c-0.4,1.1-1.1,2.1-1.9,3s-1.8,1.7-3,2.4
		c-1.1,0.7-2.4,1.2-3.7,1.5C391.5,166.7,390.1,166.9,388.8,166.9z M401.6,150c-0.1-1.9-0.5-3.7-1.3-5.4c-0.7-1.6-1.7-3-2.8-4.2
		c-1.2-1.2-2.5-2.1-4-2.8c-1.5-0.7-3.1-1-4.9-1c-1.7,0-3.4,0.3-4.9,1c-1.5,0.7-2.8,1.6-4,2.8c-1.1,1.2-2,2.6-2.7,4.2
		c-0.7,1.6-1.1,3.4-1.2,5.3H401.6z"/>
	<path class="st0" d="M421.6,166.9c-2.1,0-4.1-0.5-6-1.4c-1.8-0.9-3.4-2.1-4.7-3.6c-1.3-1.5-2.4-3.2-3.1-5.1
		c-0.7-1.9-1.1-3.9-1.1-5.9c0-2.1,0.4-4.2,1.1-6.1c0.7-1.9,1.7-3.7,3-5.1c1.3-1.5,2.8-2.6,4.5-3.5c1.7-0.9,3.7-1.3,5.7-1.3
		c1.4,0,2.7,0.2,3.9,0.6c1.2,0.4,2.4,0.9,3.4,1.6c1.1,0.7,2,1.5,2.9,2.4c0.9,0.9,1.6,1.9,2.2,2.9v-19.5h2v40.3
		c0,0.9,0.4,1.3,1.1,1.3v1.9c-0.1,0-0.3,0.1-0.5,0.1c-0.7,0-1.3-0.3-1.8-0.8c-0.5-0.5-0.7-1.1-0.7-1.8V160c-0.6,1-1.4,2-2.3,2.8
		c-0.9,0.9-1.9,1.6-2.9,2.2c-1,0.6-2.1,1.1-3.3,1.4C423.9,166.7,422.7,166.9,421.6,166.9z M421.8,165c1.2,0,2.4-0.2,3.7-0.7
		c1.3-0.5,2.5-1.1,3.7-1.9s2.1-1.8,2.9-2.9c0.8-1.1,1.2-2.2,1.3-3.4v-10.7c-0.4-1.2-1.1-2.3-1.9-3.4c-0.9-1.1-1.8-2-2.9-2.7
		c-1.1-0.8-2.3-1.4-3.5-1.8c-1.3-0.5-2.5-0.7-3.7-0.7c-1.9,0-3.6,0.4-5.2,1.2s-2.9,1.9-3.9,3.2c-1.1,1.3-1.9,2.8-2.5,4.5
		c-0.6,1.7-0.9,3.4-0.9,5.2c0,1.9,0.3,3.6,1,5.3c0.7,1.7,1.6,3.2,2.8,4.5c1.2,1.3,2.6,2.3,4.1,3.1C418.3,164.6,420,165,421.8,165z"
		/>
	<path class="st0" d="M443.7,127.8v-5h2v5H443.7z M443.7,166.3v-31h2v31H443.7z"/>
	<path class="st0" d="M461.4,166.9c-1.4,0-2.8-0.2-4-0.7c-1.2-0.5-2.3-1.2-3.2-2c-0.9-0.9-1.6-1.9-2.1-3c-0.5-1.1-0.8-2.4-0.8-3.8
		c0-1.3,0.3-2.5,1-3.6c0.6-1.1,1.5-2,2.7-2.8c1.1-0.8,2.5-1.4,4.1-1.8c1.6-0.4,3.3-0.7,5.2-0.7c1.7,0,3.5,0.1,5.3,0.4
		c1.8,0.3,3.4,0.7,4.8,1.3v-3.3c0-3.1-0.9-5.6-2.7-7.4c-1.8-1.8-4.1-2.8-7.1-2.8c-1.5,0-3.1,0.3-4.8,1s-3.4,1.6-5.1,2.8l-1-1.5
		c4-2.7,7.6-4.1,11-4.1c3.6,0,6.5,1.1,8.5,3.2c2.1,2.1,3.1,5.1,3.1,8.8v16.2c0,0.9,0.4,1.3,1.1,1.3v1.9c-0.1,0-0.2,0.1-0.3,0.1
		c-0.1,0-0.2,0-0.3,0c-0.7,0-1.2-0.2-1.7-0.7c-0.5-0.5-0.7-1.1-0.7-1.8V161c-1.4,1.9-3.3,3.3-5.5,4.3
		C466.5,166.4,464.1,166.9,461.4,166.9z M461.7,165.2c1.5,0,3-0.2,4.4-0.6c1.5-0.4,2.8-0.9,4-1.6c1.2-0.7,2.2-1.5,2.9-2.4
		c0.8-0.9,1.1-1.9,1.1-2.9v-5.8c-3.1-1.2-6.4-1.8-9.9-1.8c-1.6,0-3.1,0.2-4.5,0.5c-1.4,0.4-2.5,0.9-3.5,1.5c-1,0.6-1.7,1.4-2.3,2.3
		c-0.5,0.9-0.8,1.9-0.8,3s0.2,2.1,0.7,3.1c0.4,1,1,1.8,1.8,2.5c0.8,0.7,1.6,1.3,2.7,1.7C459.4,165,460.5,165.2,461.7,165.2z"/>
	<circle class="st0" cx="147.4" cy="145.4" r="131.4"/>
	<path class="st1" d="M90.3,101.2l-14,87.6h12.6l2.4-15.9h16.9l2.4,15.9h13.9l-14-87.6H90.3z M93,161l6.6-44.3l6.6,44.3H93z"/>
	<path class="st1" d="M151.1,101.2h-20.3v87.6h13.8v-32.9h6.5c13.8,0,20.5-7.6,20.5-21.6v-11.4C171.6,108.8,164.8,101.2,151.1,101.2
		z M157.8,135.1c0,6.3-2.4,8.3-6.8,8.3h-6.5v-29.7h6.5c4.4,0,6.8,2,6.8,8.3V135.1z"/>
	<path class="st1" d="M218.5,130.7v-8.5c0-14-7-22-20.5-22c-13.5,0-20.5,8-20.5,22v45.5c0,14,7,22,20.5,22c13.5,0,20.5-8,20.5-22
		V140h-19.3v12.5h6.3v16.1c0,6.3-2.8,8.5-7.1,8.5c-4.4,0-7.1-2.3-7.1-8.5v-47.3c0-6.3,2.8-8.6,7.1-8.6c4.4,0,7.1,2.4,7.1,8.6v9.4
		H218.5z"/>
</g>
</svg>
